# This file uses centimeters as units for non-parametric coordinates.

mtllib puerta.mtl
g default
v -0.106348 3.467523 -1.934940
v -0.106348 3.467523 0.120460
v -0.106353 3.612374 -1.934940
v -0.106353 3.612374 0.120460
v 0.109499 3.467523 -1.934940
v 0.109499 3.467523 0.120460
v 0.109494 3.612374 -1.934940
v 0.109494 3.612374 0.120460
v -0.107336 -0.039764 -0.004130
v -0.107336 -0.039764 0.116550
v -0.107359 3.478626 -0.004130
v -0.107359 3.478626 0.116550
v 0.108511 -0.039764 -0.004130
v 0.108511 -0.039764 0.116550
v 0.108488 3.478626 -0.004130
v 0.108488 3.478626 0.116550
v -0.038730 -0.039764 -1.857900
v -0.038730 -0.039764 0.058480
v -0.038734 3.478626 -1.857900
v -0.038734 3.478626 0.058480
v 0.039887 -0.039764 -1.857900
v 0.039887 -0.039764 0.058480
v 0.039882 3.478626 -1.857900
v 0.039882 3.478626 0.058480
v -0.107336 -0.039764 -1.938540
v -0.107336 -0.039764 -1.817860
v -0.107359 3.478626 -1.938540
v -0.107359 3.478626 -1.817860
v 0.108511 -0.039764 -1.938540
v 0.108511 -0.039764 -1.817860
v 0.108488 3.478626 -1.938540
v 0.108488 3.478626 -1.817860
vt 0.000000 1.000000
vt 1.000000 1.000000
vt 0.000000 0.000000
vt 1.000000 0.000000
vt 1.000000 0.000000
vt 1.000000 1.000000
vt 0.000000 0.000000
vt 0.000000 1.000000
vt 0.000000 1.000000
vt 1.000000 1.000000
vt 0.000000 0.000000
vt 1.000000 0.000000
vt 1.000000 0.000000
vt 1.000000 1.000000
vt 0.000000 0.000000
vt 0.000000 1.000000
vt 0.000000 1.000000
vt 1.000000 1.000000
vt 0.000000 0.000000
vt 1.000000 0.000000
vt 1.000000 0.000000
vt 1.000000 1.000000
vt 0.000000 0.000000
vt 0.000000 1.000000
vt 0.000000 1.000000
vt 1.000000 1.000000
vt 0.000000 0.000000
vt 1.000000 0.000000
vt 1.000000 0.000000
vt 1.000000 1.000000
vt 0.000000 0.000000
vt 0.000000 1.000000
vn 0.000000 0.000000 -1.000000
vn 0.000000 0.000000 -1.000000
vn 0.000000 0.000000 -1.000000
vn 0.000000 0.000000 -1.000000
vn 0.000000 0.000000 1.000000
vn 0.000000 0.000000 1.000000
vn 0.000000 0.000000 1.000000
vn 0.000000 0.000000 1.000000
vn -1.000000 -0.000031 0.000000
vn -1.000000 -0.000031 0.000000
vn -1.000000 -0.000031 0.000000
vn -1.000000 -0.000031 0.000000
vn 1.000000 0.000031 0.000000
vn 1.000000 0.000031 0.000000
vn 1.000000 0.000031 0.000000
vn 1.000000 0.000031 0.000000
vn 0.000000 1.000000 0.000000
vn 0.000000 1.000000 0.000000
vn 0.000000 1.000000 0.000000
vn 0.000000 1.000000 0.000000
vn 0.000000 -1.000000 0.000000
vn 0.000000 -1.000000 0.000000
vn 0.000000 -1.000000 0.000000
vn 0.000000 -1.000000 0.000000
vn 0.000000 0.000000 -1.000000
vn 0.000000 0.000000 -1.000000
vn 0.000000 0.000000 -1.000000
vn 0.000000 0.000000 -1.000000
vn 0.000000 0.000000 1.000000
vn 0.000000 0.000000 1.000000
vn 0.000000 0.000000 1.000000
vn 0.000000 0.000000 1.000000
vn -1.000000 -0.000008 0.000000
vn -1.000000 -0.000008 0.000000
vn -1.000000 -0.000008 0.000000
vn -1.000000 -0.000008 0.000000
vn 1.000000 0.000008 0.000000
vn 1.000000 0.000008 0.000000
vn 1.000000 0.000008 0.000000
vn 1.000000 0.000008 0.000000
vn 0.000000 1.000000 0.000000
vn 0.000000 1.000000 0.000000
vn 0.000000 1.000000 0.000000
vn 0.000000 1.000000 0.000000
vn 0.000000 -1.000000 0.000000
vn 0.000000 -1.000000 0.000000
vn 0.000000 -1.000000 0.000000
vn 0.000000 -1.000000 0.000000
vn 0.000000 0.000000 -1.000000
vn 0.000000 0.000000 -1.000000
vn 0.000000 0.000000 -1.000000
vn 0.000000 0.000000 -1.000000
vn 0.000000 0.000000 1.000000
vn 0.000000 0.000000 1.000000
vn 0.000000 0.000000 1.000000
vn 0.000000 0.000000 1.000000
vn -1.000000 0.000000 0.000000
vn -1.000000 0.000000 0.000000
vn -1.000000 0.000000 0.000000
vn -1.000000 0.000000 0.000000
vn 1.000000 0.000000 0.000000
vn 1.000000 0.000000 0.000000
vn 1.000000 0.000000 0.000000
vn 1.000000 0.000000 0.000000
vn 0.000000 1.000000 0.000000
vn 0.000000 1.000000 0.000000
vn 0.000000 1.000000 0.000000
vn 0.000000 1.000000 0.000000
vn 0.000000 -1.000000 0.000000
vn 0.000000 -1.000000 0.000000
vn 0.000000 -1.000000 0.000000
vn 0.000000 -1.000000 0.000000
vn 0.000000 0.000000 -1.000000
vn 0.000000 0.000000 -1.000000
vn 0.000000 0.000000 -1.000000
vn 0.000000 0.000000 -1.000000
vn 0.000000 0.000000 1.000000
vn 0.000000 0.000000 1.000000
vn 0.000000 0.000000 1.000000
vn 0.000000 0.000000 1.000000
vn -1.000000 -0.000008 0.000000
vn -1.000000 -0.000008 0.000000
vn -1.000000 -0.000008 0.000000
vn -1.000000 -0.000008 0.000000
vn 1.000000 0.000008 0.000000
vn 1.000000 0.000008 0.000000
vn 1.000000 0.000008 0.000000
vn 1.000000 0.000008 0.000000
vn 0.000000 1.000000 0.000000
vn 0.000000 1.000000 0.000000
vn 0.000000 1.000000 0.000000
vn 0.000000 1.000000 0.000000
vn 0.000000 -1.000000 0.000000
vn 0.000000 -1.000000 0.000000
vn 0.000000 -1.000000 0.000000
vn 0.000000 -1.000000 0.000000
s 1
g polySurface3
usemtl lambert2SG
f 3/1/1 7/2/2 1/3/3
f 1/3/3 7/2/2 5/4/4
s 2
f 6/5/5 8/6/6 2/7/7
f 2/7/7 8/6/6 4/8/8
s 3
f 2/7/9 4/8/10 1/3/11
f 1/3/11 4/8/10 3/1/12
s 4
f 7/2/13 8/6/14 5/4/15
f 5/4/15 8/6/14 6/5/16
s 5
f 4/8/17 8/6/18 3/1/19
f 3/1/19 8/6/18 7/2/20
s 6
f 5/4/21 6/5/22 1/3/23
f 1/3/23 6/5/22 2/7/24
s 7
f 11/9/25 15/10/26 9/11/27
f 9/11/27 15/10/26 13/12/28
s 8
f 14/13/29 16/14/30 10/15/31
f 10/15/31 16/14/30 12/16/32
s 9
f 10/15/33 12/16/34 9/11/35
f 9/11/35 12/16/34 11/9/36
s 10
f 15/10/37 16/14/38 13/12/39
f 13/12/39 16/14/38 14/13/40
s 11
f 12/16/41 16/14/42 11/9/43
f 11/9/43 16/14/42 15/10/44
s 12
f 13/12/45 14/13/46 9/11/47
f 9/11/47 14/13/46 10/15/48
s 13
f 19/17/49 23/18/50 17/19/51
f 17/19/51 23/18/50 21/20/52
s 14
f 22/21/53 24/22/54 18/23/55
f 18/23/55 24/22/54 20/24/56
s 15
f 18/23/57 20/24/58 17/19/59
f 17/19/59 20/24/58 19/17/60
s 16
f 23/18/61 24/22/62 21/20/63
f 21/20/63 24/22/62 22/21/64
s 17
f 20/24/65 24/22/66 19/17/67
f 19/17/67 24/22/66 23/18/68
s 18
f 21/20/69 22/21/70 17/19/71
f 17/19/71 22/21/70 18/23/72
s 19
f 27/25/73 31/26/74 25/27/75
f 25/27/75 31/26/74 29/28/76
s 20
f 30/29/77 32/30/78 26/31/79
f 26/31/79 32/30/78 28/32/80
s 21
f 26/31/81 28/32/82 25/27/83
f 25/27/83 28/32/82 27/25/84
s 22
f 31/26/85 32/30/86 29/28/87
f 29/28/87 32/30/86 30/29/88
s 23
f 28/32/89 32/30/90 27/25/91
f 27/25/91 32/30/90 31/26/92
s 24
f 29/28/93 30/29/94 25/27/95
f 25/27/95 30/29/94 26/31/96
g default
v -0.106348 3.467523 -1.934940
v -0.106348 3.467523 0.120460
v -0.106353 3.612374 -1.934940
v -0.106353 3.612374 0.120460
v 0.109499 3.467523 -1.934940
v 0.109499 3.467523 0.120460
v 0.109494 3.612374 -1.934940
v 0.109494 3.612374 0.120460
v -0.107336 -0.039764 -0.004130
v -0.107336 -0.039764 0.116550
v -0.107359 3.478626 -0.004130
v -0.107359 3.478626 0.116550
v 0.108511 -0.039764 -0.004130
v 0.108511 -0.039764 0.116550
v 0.108488 3.478626 -0.004130
v 0.108488 3.478626 0.116550
v -0.038730 -0.039764 -1.857900
v -0.038730 -0.039764 0.058480
v -0.038734 3.478626 -1.857900
v -0.038734 3.478626 0.058480
v 0.039887 -0.039764 -1.857900
v 0.039887 -0.039764 0.058480
v 0.039882 3.478626 -1.857900
v 0.039882 3.478626 0.058480
v -0.107336 -0.039764 -1.938540
v -0.107336 -0.039764 -1.817860
v -0.107359 3.478626 -1.938540
v -0.107359 3.478626 -1.817860
v 0.108511 -0.039764 -1.938540
v 0.108511 -0.039764 -1.817860
v 0.108488 3.478626 -1.938540
v 0.108488 3.478626 -1.817860
vt 0.000000 1.000000
vt 1.000000 1.000000
vt 0.000000 0.000000
vt 1.000000 0.000000
vt 1.000000 0.000000
vt 1.000000 1.000000
vt 0.000000 0.000000
vt 0.000000 1.000000
vt 0.000000 1.000000
vt 1.000000 1.000000
vt 0.000000 0.000000
vt 1.000000 0.000000
vt 1.000000 0.000000
vt 1.000000 1.000000
vt 0.000000 0.000000
vt 0.000000 1.000000
vt 0.000000 1.000000
vt 1.000000 1.000000
vt 0.000000 0.000000
vt 1.000000 0.000000
vt 1.000000 0.000000
vt 1.000000 1.000000
vt 0.000000 0.000000
vt 0.000000 1.000000
vt 0.000000 1.000000
vt 1.000000 1.000000
vt 0.000000 0.000000
vt 1.000000 0.000000
vt 1.000000 0.000000
vt 1.000000 1.000000
vt 0.000000 0.000000
vt 0.000000 1.000000
vn 0.000000 0.000000 -1.000000
vn 0.000000 0.000000 -1.000000
vn 0.000000 0.000000 -1.000000
vn 0.000000 0.000000 -1.000000
vn 0.000000 0.000000 1.000000
vn 0.000000 0.000000 1.000000
vn 0.000000 0.000000 1.000000
vn 0.000000 0.000000 1.000000
vn -1.000000 -0.000031 0.000000
vn -1.000000 -0.000031 0.000000
vn -1.000000 -0.000031 0.000000
vn -1.000000 -0.000031 0.000000
vn 1.000000 0.000031 0.000000
vn 1.000000 0.000031 0.000000
vn 1.000000 0.000031 0.000000
vn 1.000000 0.000031 0.000000
vn 0.000000 1.000000 0.000000
vn 0.000000 1.000000 0.000000
vn 0.000000 1.000000 0.000000
vn 0.000000 1.000000 0.000000
vn 0.000000 -1.000000 0.000000
vn 0.000000 -1.000000 0.000000
vn 0.000000 -1.000000 0.000000
vn 0.000000 -1.000000 0.000000
vn 0.000000 0.000000 -1.000000
vn 0.000000 0.000000 -1.000000
vn 0.000000 0.000000 -1.000000
vn 0.000000 0.000000 -1.000000
vn 0.000000 0.000000 1.000000
vn 0.000000 0.000000 1.000000
vn 0.000000 0.000000 1.000000
vn 0.000000 0.000000 1.000000
vn -1.000000 -0.000008 0.000000
vn -1.000000 -0.000008 0.000000
vn -1.000000 -0.000008 0.000000
vn -1.000000 -0.000008 0.000000
vn 1.000000 0.000008 0.000000
vn 1.000000 0.000008 0.000000
vn 1.000000 0.000008 0.000000
vn 1.000000 0.000008 0.000000
vn 0.000000 1.000000 0.000000
vn 0.000000 1.000000 0.000000
vn 0.000000 1.000000 0.000000
vn 0.000000 1.000000 0.000000
vn 0.000000 -1.000000 0.000000
vn 0.000000 -1.000000 0.000000
vn 0.000000 -1.000000 0.000000
vn 0.000000 -1.000000 0.000000
vn 0.000000 0.000000 -1.000000
vn 0.000000 0.000000 -1.000000
vn 0.000000 0.000000 -1.000000
vn 0.000000 0.000000 -1.000000
vn 0.000000 0.000000 1.000000
vn 0.000000 0.000000 1.000000
vn 0.000000 0.000000 1.000000
vn 0.000000 0.000000 1.000000
vn -1.000000 0.000000 0.000000
vn -1.000000 0.000000 0.000000
vn -1.000000 0.000000 0.000000
vn -1.000000 0.000000 0.000000
vn 1.000000 0.000000 0.000000
vn 1.000000 0.000000 0.000000
vn 1.000000 0.000000 0.000000
vn 1.000000 0.000000 0.000000
vn 0.000000 1.000000 0.000000
vn 0.000000 1.000000 0.000000
vn 0.000000 1.000000 0.000000
vn 0.000000 1.000000 0.000000
vn 0.000000 -1.000000 0.000000
vn 0.000000 -1.000000 0.000000
vn 0.000000 -1.000000 0.000000
vn 0.000000 -1.000000 0.000000
vn 0.000000 0.000000 -1.000000
vn 0.000000 0.000000 -1.000000
vn 0.000000 0.000000 -1.000000
vn 0.000000 0.000000 -1.000000
vn 0.000000 0.000000 1.000000
vn 0.000000 0.000000 1.000000
vn 0.000000 0.000000 1.000000
vn 0.000000 0.000000 1.000000
vn -1.000000 -0.000008 0.000000
vn -1.000000 -0.000008 0.000000
vn -1.000000 -0.000008 0.000000
vn -1.000000 -0.000008 0.000000
vn 1.000000 0.000008 0.000000
vn 1.000000 0.000008 0.000000
vn 1.000000 0.000008 0.000000
vn 1.000000 0.000008 0.000000
vn 0.000000 1.000000 0.000000
vn 0.000000 1.000000 0.000000
vn 0.000000 1.000000 0.000000
vn 0.000000 1.000000 0.000000
vn 0.000000 -1.000000 0.000000
vn 0.000000 -1.000000 0.000000
vn 0.000000 -1.000000 0.000000
vn 0.000000 -1.000000 0.000000
s 1
g polySurface3
f 35/33/97 39/34/98 33/35/99
f 33/35/99 39/34/98 37/36/100
s 2
f 38/37/101 40/38/102 34/39/103
f 34/39/103 40/38/102 36/40/104
s 3
f 34/39/105 36/40/106 33/35/107
f 33/35/107 36/40/106 35/33/108
s 4
f 39/34/109 40/38/110 37/36/111
f 37/36/111 40/38/110 38/37/112
s 5
f 36/40/113 40/38/114 35/33/115
f 35/33/115 40/38/114 39/34/116
s 6
f 37/36/117 38/37/118 33/35/119
f 33/35/119 38/37/118 34/39/120
s 7
f 43/41/121 47/42/122 41/43/123
f 41/43/123 47/42/122 45/44/124
s 8
f 46/45/125 48/46/126 42/47/127
f 42/47/127 48/46/126 44/48/128
s 9
f 42/47/129 44/48/130 41/43/131
f 41/43/131 44/48/130 43/41/132
s 10
f 47/42/133 48/46/134 45/44/135
f 45/44/135 48/46/134 46/45/136
s 11
f 44/48/137 48/46/138 43/41/139
f 43/41/139 48/46/138 47/42/140
s 12
f 45/44/141 46/45/142 41/43/143
f 41/43/143 46/45/142 42/47/144
s 13
f 51/49/145 55/50/146 49/51/147
f 49/51/147 55/50/146 53/52/148
s 14
f 54/53/149 56/54/150 50/55/151
f 50/55/151 56/54/150 52/56/152
s 15
f 50/55/153 52/56/154 49/51/155
f 49/51/155 52/56/154 51/49/156
s 16
f 55/50/157 56/54/158 53/52/159
f 53/52/159 56/54/158 54/53/160
s 17
f 52/56/161 56/54/162 51/49/163
f 51/49/163 56/54/162 55/50/164
s 18
f 53/52/165 54/53/166 49/51/167
f 49/51/167 54/53/166 50/55/168
s 19
f 59/57/169 63/58/170 57/59/171
f 57/59/171 63/58/170 61/60/172
s 20
f 62/61/173 64/62/174 58/63/175
f 58/63/175 64/62/174 60/64/176
s 21
f 58/63/177 60/64/178 57/59/179
f 57/59/179 60/64/178 59/57/180
s 22
f 63/58/181 64/62/182 61/60/183
f 61/60/183 64/62/182 62/61/184
s 23
f 60/64/185 64/62/186 59/57/187
f 59/57/187 64/62/186 63/58/188
s 24
f 61/60/189 62/61/190 57/59/191
f 57/59/191 62/61/190 58/63/192
