# This file uses centimeters as units for non-parametric coordinates.

mtllib cuadros.mtl
g default
v 0.004871 0.966451 -0.607057
v 0.045652 0.966451 -6.333331
v 0.004871 7.420706 -0.607057
v 0.045652 7.420706 -6.333331
v -0.397964 7.420706 -0.609926
v -0.357183 7.420706 -6.336200
v -0.397964 0.966451 -0.609926
v -0.357183 0.966451 -6.336200
v 0.126425 0.566872 -0.204421
v 0.172941 0.566872 -6.735967
v 0.126425 7.820284 -0.204421
v 0.172941 7.820284 -6.735967
v -0.276411 7.820284 -0.207290
v -0.229895 7.820284 -6.738836
v -0.276411 0.566872 -0.207290
v -0.229895 0.566872 -6.738836
v 0.002948 0.966451 9.038908
v 0.042972 0.966451 3.418997
v 0.002948 7.420706 9.038908
v 0.042972 7.420706 3.418997
v -0.399888 7.420706 9.036037
v -0.359864 7.420706 3.416128
v -0.399888 0.966451 9.036037
v -0.359864 0.966451 3.416128
v 0.126425 0.566872 9.502401
v 0.172941 0.566872 2.970854
v 0.126425 7.820284 9.502401
v 0.172941 7.820284 2.970854
v -0.276411 7.820284 9.499531
v -0.229895 7.820284 2.967985
v -0.276411 0.566872 9.499531
v -0.229895 0.566872 2.967985
v -0.095134 7.336668 3.819915
v -0.058908 7.355761 8.906309
v -0.095134 1.522134 3.841742
v -0.058908 1.541227 8.928137
v -0.465776 1.522144 3.844382
v -0.429551 1.541238 8.930777
v -0.465776 7.336678 3.822555
v -0.429551 7.355772 8.908949
v -0.051669 7.121417 -5.944532
v -0.036839 7.104245 -0.929002
v -0.051596 1.299427 -5.963326
v -0.036766 1.282255 -0.947795
v -0.454440 1.299420 -5.962412
v -0.439610 1.282248 -0.946882
v -0.454514 7.121410 -5.943619
v -0.439684 7.104239 -0.928089
vt 0.375000 0.250000
vt 0.375000 0.000000
vt 0.625000 0.250000
vt 0.625000 0.000000
vt 0.375000 0.500000
vt 0.625000 0.500000
vt 0.376812 0.753623
vt 0.623188 0.753623
vt 0.378623 1.000000
vt 0.621377 1.000000
vt 0.875000 0.250000
vt 0.875000 0.000000
vt 0.125000 0.250000
vt 0.125000 0.000000
vt 0.375000 0.250000
vt 0.375000 0.000000
vt 0.625000 0.250000
vt 0.625000 0.000000
vt 0.375000 0.500000
vt 0.625000 0.500000
vt 0.376812 0.753623
vt 0.623188 0.753623
vt 0.378623 1.000000
vt 0.621377 1.000000
vt 0.875000 0.250000
vt 0.875000 0.000000
vt 0.125000 0.250000
vt 0.125000 0.000000
vt 0.375000 0.250000
vt 0.375000 0.000000
vt 0.625000 0.250000
vt 0.625000 0.000000
vt 0.375000 0.500000
vt 0.625000 0.500000
vt 0.376812 0.753623
vt 0.623188 0.753623
vt 0.378623 1.000000
vt 0.621377 1.000000
vt 0.875000 0.250000
vt 0.875000 0.000000
vt 0.125000 0.250000
vt 0.125000 0.000000
vt 0.375000 0.250000
vt 0.375000 0.000000
vt 0.625000 0.250000
vt 0.625000 0.000000
vt 0.375000 0.500000
vt 0.625000 0.500000
vt 0.376812 0.753623
vt 0.623188 0.753623
vt 0.378623 1.000000
vt 0.621377 1.000000
vt 0.875000 0.250000
vt 0.875000 0.000000
vt 0.125000 0.250000
vt 0.125000 0.000000
vt 0.067539 0.174039
vt 0.221270 -0.037980
vt 0.317539 0.174039
vt 0.471270 -0.037980
vt 0.067539 0.424039
vt 0.317539 0.424039
vt 0.069351 0.677662
vt 0.315728 0.677662
vt 0.221400 0.961157
vt 0.464154 0.961157
vt 0.721270 0.212020
vt 0.814384 -0.014976
vt -0.028730 0.212020
vt 0.064384 -0.014976
vt 0.041925 0.544232
vt 0.014169 -0.089515
vt 0.958076 0.544232
vt 0.985831 -0.089515
vt 0.028251 1.140408
vt 0.971749 1.140408
vt 0.021210 1.775961
vt 0.978790 1.775961
vt 0.028251 2.409258
vt 0.971749 2.409258
vt 1.915204 0.540657
vt 1.957494 -0.085943
vt -0.915204 0.540657
vt -0.957494 -0.085943
vn 0.999975 0.000000 0.007122
vn 0.999975 0.000000 0.007122
vn 0.999975 0.000000 0.007122
vn 0.999975 0.000000 0.007122
vn 0.000000 1.000000 -0.000000
vn 0.000000 1.000000 -0.000000
vn 0.000000 1.000000 -0.000000
vn 0.000000 1.000000 0.000000
vn -0.999975 0.000000 -0.007122
vn -0.999975 0.000000 -0.007122
vn -0.999975 0.000000 -0.007122
vn -0.999975 0.000000 -0.007122
vn 0.000000 -1.000000 -0.000000
vn 0.000000 -1.000000 -0.000000
vn 0.000000 -1.000000 -0.000000
vn 0.000000 -1.000000 0.000000
vn 0.007122 0.000000 -0.999975
vn 0.007124 0.000000 -0.999975
vn 0.007122 0.000000 -0.999975
vn 0.007124 0.000000 -0.999975
vn -0.007122 0.000000 0.999975
vn -0.007122 0.000000 0.999975
vn -0.007122 0.000000 0.999975
vn -0.007122 0.000000 0.999975
vn 0.999975 0.000000 0.007122
vn 0.999975 0.000000 0.007122
vn 0.999975 0.000000 0.007122
vn 0.999975 0.000000 0.007122
vn 0.000000 1.000000 -0.000000
vn 0.000000 1.000000 -0.000000
vn 0.000000 1.000000 -0.000000
vn 0.000000 1.000000 0.000000
vn -0.999975 0.000000 -0.007122
vn -0.999975 0.000000 -0.007122
vn -0.999975 0.000000 -0.007122
vn -0.999975 0.000000 -0.007122
vn 0.000000 -1.000000 -0.000000
vn 0.000000 -1.000000 -0.000000
vn 0.000000 -1.000000 0.000000
vn 0.000000 -1.000000 0.000000
vn 0.007123 0.000000 -0.999975
vn 0.007123 0.000000 -0.999975
vn 0.007123 0.000000 -0.999975
vn 0.007123 0.000000 -0.999975
vn -0.007122 0.000000 0.999975
vn -0.007122 0.000000 0.999975
vn -0.007122 0.000000 0.999975
vn -0.007122 0.000000 0.999975
vn 0.999975 0.000000 0.007122
vn 0.999975 0.000000 0.007122
vn 0.999975 0.000000 0.007122
vn 0.999975 0.000000 0.007122
vn 0.000000 1.000000 0.000000
vn 0.000000 1.000000 0.000000
vn 0.000000 1.000000 -0.000000
vn 0.000000 1.000000 -0.000000
vn -0.999975 0.000000 -0.007122
vn -0.999975 0.000000 -0.007122
vn -0.999975 0.000000 -0.007122
vn -0.999975 0.000000 -0.007122
vn 0.000000 -1.000000 0.000000
vn 0.000000 -1.000000 0.000000
vn 0.000000 -1.000000 0.000000
vn 0.000000 -1.000000 0.000000
vn 0.007124 0.000000 -0.999975
vn 0.007123 0.000000 -0.999975
vn 0.007124 0.000000 -0.999975
vn 0.007123 0.000000 -0.999975
vn -0.007124 0.000000 0.999975
vn -0.007124 0.000000 0.999975
vn -0.007124 0.000000 0.999975
vn -0.007124 0.000000 0.999975
vn 0.999975 0.000000 0.007122
vn 0.999975 0.000000 0.007122
vn 0.999975 0.000000 0.007122
vn 0.999975 0.000000 0.007122
vn 0.000000 1.000000 -0.000000
vn 0.000000 1.000000 -0.000000
vn 0.000000 1.000000 -0.000000
vn 0.000000 1.000000 0.000000
vn -0.999975 0.000000 -0.007122
vn -0.999975 0.000000 -0.007122
vn -0.999975 0.000000 -0.007122
vn -0.999975 0.000000 -0.007122
vn 0.000000 -1.000000 -0.000000
vn 0.000000 -1.000000 -0.000000
vn 0.000000 -1.000000 0.000000
vn 0.000000 -1.000000 0.000000
vn 0.007123 0.000000 -0.999975
vn 0.007123 0.000000 -0.999975
vn 0.007123 0.000000 -0.999975
vn 0.007123 0.000000 -0.999975
vn -0.007123 0.000000 0.999975
vn -0.007128 0.000000 0.999975
vn -0.007123 0.000000 0.999975
vn -0.007128 0.000000 0.999975
vn 0.999975 -0.000027 -0.007122
vn 0.999975 -0.000027 -0.007122
vn 0.999975 -0.000027 -0.007122
vn 0.999975 -0.000027 -0.007122
vn -0.000002 -0.999993 0.003754
vn -0.000002 -0.999993 0.003754
vn -0.000002 -0.999993 0.003754
vn -0.000002 -0.999993 0.003754
vn -0.999975 0.000027 0.007122
vn -0.999975 0.000027 0.007122
vn -0.999975 0.000027 0.007122
vn -0.999975 0.000027 0.007122
vn -0.000001 0.999993 -0.003754
vn -0.000001 0.999993 -0.003754
vn 0.000004 0.999993 -0.003754
vn 0.000004 0.999993 -0.003754
vn 0.007121 0.003754 0.999968
vn 0.007119 0.003754 0.999968
vn 0.007121 0.003754 0.999968
vn 0.007119 0.003754 0.999968
vn -0.007121 -0.003754 -0.999968
vn -0.007122 -0.003754 -0.999968
vn -0.007121 -0.003754 -0.999968
vn -0.007123 -0.003754 -0.999968
vn 0.999996 0.000022 -0.002957
vn 0.999996 0.000022 -0.002957
vn 0.999996 0.000022 -0.002957
vn 0.999996 0.000022 -0.002957
vn 0.000009 -0.999994 -0.003424
vn 0.000009 -0.999994 -0.003424
vn 0.000009 -0.999994 -0.003424
vn 0.000009 -0.999994 -0.003424
vn -0.999996 -0.000022 0.002957
vn -0.999996 -0.000022 0.002957
vn -0.999996 -0.000022 0.002957
vn -0.999996 -0.000022 0.002957
vn -0.000009 0.999994 0.003424
vn -0.000009 0.999994 0.003424
vn -0.000009 0.999994 0.003424
vn -0.000009 0.999994 0.003424
vn 0.002268 -0.003228 0.999992
vn 0.002268 -0.003228 0.999992
vn 0.002268 -0.003228 0.999992
vn 0.002268 -0.003228 0.999992
vn -0.002265 0.003228 -0.999992
vn -0.002270 0.003228 -0.999992
vn -0.002266 0.003228 -0.999992
vn -0.002271 0.003228 -0.999992
s 1
g polySurface283
usemtl lambert24SG
f 3/1/1 1/2/2 4/3/3
f 4/3/3 1/2/2 2/4/4
s 2
f 5/5/5 3/1/6 6/6/7
f 6/6/7 3/1/6 4/3/8
s 3
f 7/7/9 5/5/10 8/8/11
f 8/8/11 5/5/10 6/6/12
s 4
f 1/9/13 7/7/14 2/10/15
f 2/10/15 7/7/14 8/8/16
s 5
f 4/3/17 2/4/18 6/11/19
f 6/11/19 2/4/18 8/12/20
s 6
f 5/13/21 7/14/22 3/1/23
f 3/1/23 7/14/22 1/2/24
s 7
usemtl pasted__pasted__lambert22SG
f 11/15/25 9/16/26 12/17/27
f 12/17/27 9/16/26 10/18/28
s 8
f 13/19/29 11/15/30 14/20/31
f 14/20/31 11/15/30 12/17/32
s 9
f 15/21/33 13/19/34 16/22/35
f 16/22/35 13/19/34 14/20/36
s 10
f 9/23/37 15/21/38 10/24/39
f 10/24/39 15/21/38 16/22/40
s 11
f 12/17/41 10/18/42 14/25/43
f 14/25/43 10/18/42 16/26/44
s 12
f 13/27/45 15/28/46 11/15/47
f 11/15/47 15/28/46 9/16/48
s 13
usemtl pasted__lambert24SG
f 19/29/49 17/30/50 20/31/51
f 20/31/51 17/30/50 18/32/52
s 14
f 21/33/53 19/29/54 22/34/55
f 22/34/55 19/29/54 20/31/56
s 15
f 23/35/57 21/33/58 24/36/59
f 24/36/59 21/33/58 22/34/60
s 16
f 17/37/61 23/35/62 18/38/63
f 18/38/63 23/35/62 24/36/64
s 17
f 20/31/65 18/32/66 22/39/67
f 22/39/67 18/32/66 24/40/68
s 18
f 21/41/69 23/42/70 19/29/71
f 19/29/71 23/42/70 17/30/72
s 19
usemtl lambert22SG
f 27/43/73 25/44/74 28/45/75
f 28/45/75 25/44/74 26/46/76
s 20
f 29/47/77 27/43/78 30/48/79
f 30/48/79 27/43/78 28/45/80
s 21
f 31/49/81 29/47/82 32/50/83
f 32/50/83 29/47/82 30/48/84
s 22
f 25/51/85 31/49/86 26/52/87
f 26/52/87 31/49/86 32/50/88
s 23
f 28/45/89 26/46/90 30/53/91
f 30/53/91 26/46/90 32/54/92
s 24
f 29/55/93 31/56/94 27/43/95
f 27/43/95 31/56/94 25/44/96
s 25
usemtl lambert27SG
f 35/57/97 33/58/98 36/59/99
f 36/59/99 33/58/98 34/60/100
s 26
f 37/61/101 35/57/102 38/62/103
f 38/62/103 35/57/102 36/59/104
s 27
f 39/63/105 37/61/106 40/64/107
f 40/64/107 37/61/106 38/62/108
s 28
f 33/65/109 39/63/110 34/66/111
f 34/66/111 39/63/110 40/64/112
s 29
f 36/59/113 34/60/114 38/67/115
f 38/67/115 34/60/114 40/68/116
s 30
f 37/69/117 39/70/118 35/57/119
f 35/57/119 39/70/118 33/58/120
s 31
usemtl lambert25SG
f 43/71/121 41/72/122 44/73/123
f 44/73/123 41/72/122 42/74/124
s 32
f 45/75/125 43/71/126 46/76/127
f 46/76/127 43/71/126 44/73/128
s 33
f 47/77/129 45/75/130 48/78/131
f 48/78/131 45/75/130 46/76/132
s 34
f 41/79/133 47/77/134 42/80/135
f 42/80/135 47/77/134 48/78/136
s 35
f 44/73/137 42/74/138 46/81/139
f 46/81/139 42/74/138 48/82/140
s 36
f 45/83/141 47/84/142 43/71/143
f 43/71/143 47/84/142 41/72/144
g default
v 0.004871 0.966451 -0.607057
v 0.045652 0.966451 -6.333331
v 0.004871 7.420706 -0.607057
v 0.045652 7.420706 -6.333331
v -0.397964 7.420706 -0.609926
v -0.357183 7.420706 -6.336200
v -0.397964 0.966451 -0.609926
v -0.357183 0.966451 -6.336200
v 0.126425 0.566872 -0.204421
v 0.172941 0.566872 -6.735967
v 0.126425 7.820284 -0.204421
v 0.172941 7.820284 -6.735967
v -0.276411 7.820284 -0.207290
v -0.229895 7.820284 -6.738836
v -0.276411 0.566872 -0.207290
v -0.229895 0.566872 -6.738836
v 0.002948 0.966451 9.038908
v 0.042972 0.966451 3.418997
v 0.002948 7.420706 9.038908
v 0.042972 7.420706 3.418997
v -0.399888 7.420706 9.036037
v -0.359864 7.420706 3.416128
v -0.399888 0.966451 9.036037
v -0.359864 0.966451 3.416128
v 0.126425 0.566872 9.502401
v 0.172941 0.566872 2.970854
v 0.126425 7.820284 9.502401
v 0.172941 7.820284 2.970854
v -0.276411 7.820284 9.499531
v -0.229895 7.820284 2.967985
v -0.276411 0.566872 9.499531
v -0.229895 0.566872 2.967985
v -0.095134 7.336668 3.819915
v -0.058908 7.355761 8.906309
v -0.095134 1.522134 3.841742
v -0.058908 1.541227 8.928137
v -0.465776 1.522144 3.844382
v -0.429551 1.541238 8.930777
v -0.465776 7.336678 3.822555
v -0.429551 7.355772 8.908949
v -0.051669 7.121417 -5.944532
v -0.036839 7.104245 -0.929002
v -0.051596 1.299427 -5.963326
v -0.036766 1.282255 -0.947795
v -0.454440 1.299420 -5.962412
v -0.439610 1.282248 -0.946882
v -0.454514 7.121410 -5.943619
v -0.439684 7.104239 -0.928089
vt 0.375000 0.250000
vt 0.375000 0.000000
vt 0.625000 0.250000
vt 0.625000 0.000000
vt 0.375000 0.500000
vt 0.625000 0.500000
vt 0.376812 0.753623
vt 0.623188 0.753623
vt 0.378623 1.000000
vt 0.621377 1.000000
vt 0.875000 0.250000
vt 0.875000 0.000000
vt 0.125000 0.250000
vt 0.125000 0.000000
vt 0.375000 0.250000
vt 0.375000 0.000000
vt 0.625000 0.250000
vt 0.625000 0.000000
vt 0.375000 0.500000
vt 0.625000 0.500000
vt 0.376812 0.753623
vt 0.623188 0.753623
vt 0.378623 1.000000
vt 0.621377 1.000000
vt 0.875000 0.250000
vt 0.875000 0.000000
vt 0.125000 0.250000
vt 0.125000 0.000000
vt 0.375000 0.250000
vt 0.375000 0.000000
vt 0.625000 0.250000
vt 0.625000 0.000000
vt 0.375000 0.500000
vt 0.625000 0.500000
vt 0.376812 0.753623
vt 0.623188 0.753623
vt 0.378623 1.000000
vt 0.621377 1.000000
vt 0.875000 0.250000
vt 0.875000 0.000000
vt 0.125000 0.250000
vt 0.125000 0.000000
vt 0.375000 0.250000
vt 0.375000 0.000000
vt 0.625000 0.250000
vt 0.625000 0.000000
vt 0.375000 0.500000
vt 0.625000 0.500000
vt 0.376812 0.753623
vt 0.623188 0.753623
vt 0.378623 1.000000
vt 0.621377 1.000000
vt 0.875000 0.250000
vt 0.875000 0.000000
vt 0.125000 0.250000
vt 0.125000 0.000000
vt 0.067539 0.174039
vt 0.221270 -0.037980
vt 0.317539 0.174039
vt 0.471270 -0.037980
vt 0.067539 0.424039
vt 0.317539 0.424039
vt 0.069351 0.677662
vt 0.315728 0.677662
vt 0.221400 0.961157
vt 0.464154 0.961157
vt 0.721270 0.212020
vt 0.814384 -0.014976
vt -0.028730 0.212020
vt 0.064384 -0.014976
vt 0.041925 0.544232
vt 0.014169 -0.089515
vt 0.958076 0.544232
vt 0.985831 -0.089515
vt 0.028251 1.140408
vt 0.971749 1.140408
vt 0.021210 1.775961
vt 0.978790 1.775961
vt 0.028251 2.409258
vt 0.971749 2.409258
vt 1.915204 0.540657
vt 1.957494 -0.085943
vt -0.915204 0.540657
vt -0.957494 -0.085943
vn 0.999975 0.000000 0.007122
vn 0.999975 0.000000 0.007122
vn 0.999975 0.000000 0.007122
vn 0.999975 0.000000 0.007122
vn 0.000000 1.000000 -0.000000
vn 0.000000 1.000000 -0.000000
vn 0.000000 1.000000 -0.000000
vn 0.000000 1.000000 0.000000
vn -0.999975 0.000000 -0.007122
vn -0.999975 0.000000 -0.007122
vn -0.999975 0.000000 -0.007122
vn -0.999975 0.000000 -0.007122
vn 0.000000 -1.000000 -0.000000
vn 0.000000 -1.000000 -0.000000
vn 0.000000 -1.000000 -0.000000
vn 0.000000 -1.000000 0.000000
vn 0.007122 0.000000 -0.999975
vn 0.007124 0.000000 -0.999975
vn 0.007122 0.000000 -0.999975
vn 0.007124 0.000000 -0.999975
vn -0.007122 0.000000 0.999975
vn -0.007122 0.000000 0.999975
vn -0.007122 0.000000 0.999975
vn -0.007122 0.000000 0.999975
vn 0.999975 0.000000 0.007122
vn 0.999975 0.000000 0.007122
vn 0.999975 0.000000 0.007122
vn 0.999975 0.000000 0.007122
vn 0.000000 1.000000 -0.000000
vn 0.000000 1.000000 -0.000000
vn 0.000000 1.000000 -0.000000
vn 0.000000 1.000000 0.000000
vn -0.999975 0.000000 -0.007122
vn -0.999975 0.000000 -0.007122
vn -0.999975 0.000000 -0.007122
vn -0.999975 0.000000 -0.007122
vn 0.000000 -1.000000 -0.000000
vn 0.000000 -1.000000 -0.000000
vn 0.000000 -1.000000 0.000000
vn 0.000000 -1.000000 0.000000
vn 0.007123 0.000000 -0.999975
vn 0.007123 0.000000 -0.999975
vn 0.007123 0.000000 -0.999975
vn 0.007123 0.000000 -0.999975
vn -0.007122 0.000000 0.999975
vn -0.007122 0.000000 0.999975
vn -0.007122 0.000000 0.999975
vn -0.007122 0.000000 0.999975
vn 0.999975 0.000000 0.007122
vn 0.999975 0.000000 0.007122
vn 0.999975 0.000000 0.007122
vn 0.999975 0.000000 0.007122
vn 0.000000 1.000000 0.000000
vn 0.000000 1.000000 0.000000
vn 0.000000 1.000000 -0.000000
vn 0.000000 1.000000 -0.000000
vn -0.999975 0.000000 -0.007122
vn -0.999975 0.000000 -0.007122
vn -0.999975 0.000000 -0.007122
vn -0.999975 0.000000 -0.007122
vn 0.000000 -1.000000 0.000000
vn 0.000000 -1.000000 0.000000
vn 0.000000 -1.000000 0.000000
vn 0.000000 -1.000000 0.000000
vn 0.007124 0.000000 -0.999975
vn 0.007123 0.000000 -0.999975
vn 0.007124 0.000000 -0.999975
vn 0.007123 0.000000 -0.999975
vn -0.007124 0.000000 0.999975
vn -0.007124 0.000000 0.999975
vn -0.007124 0.000000 0.999975
vn -0.007124 0.000000 0.999975
vn 0.999975 0.000000 0.007122
vn 0.999975 0.000000 0.007122
vn 0.999975 0.000000 0.007122
vn 0.999975 0.000000 0.007122
vn 0.000000 1.000000 -0.000000
vn 0.000000 1.000000 -0.000000
vn 0.000000 1.000000 -0.000000
vn 0.000000 1.000000 0.000000
vn -0.999975 0.000000 -0.007122
vn -0.999975 0.000000 -0.007122
vn -0.999975 0.000000 -0.007122
vn -0.999975 0.000000 -0.007122
vn 0.000000 -1.000000 -0.000000
vn 0.000000 -1.000000 -0.000000
vn 0.000000 -1.000000 0.000000
vn 0.000000 -1.000000 0.000000
vn 0.007123 0.000000 -0.999975
vn 0.007123 0.000000 -0.999975
vn 0.007123 0.000000 -0.999975
vn 0.007123 0.000000 -0.999975
vn -0.007123 0.000000 0.999975
vn -0.007128 0.000000 0.999975
vn -0.007123 0.000000 0.999975
vn -0.007128 0.000000 0.999975
vn 0.999975 -0.000027 -0.007122
vn 0.999975 -0.000027 -0.007122
vn 0.999975 -0.000027 -0.007122
vn 0.999975 -0.000027 -0.007122
vn -0.000002 -0.999993 0.003754
vn -0.000002 -0.999993 0.003754
vn -0.000002 -0.999993 0.003754
vn -0.000002 -0.999993 0.003754
vn -0.999975 0.000027 0.007122
vn -0.999975 0.000027 0.007122
vn -0.999975 0.000027 0.007122
vn -0.999975 0.000027 0.007122
vn -0.000001 0.999993 -0.003754
vn -0.000001 0.999993 -0.003754
vn 0.000004 0.999993 -0.003754
vn 0.000004 0.999993 -0.003754
vn 0.007121 0.003754 0.999968
vn 0.007119 0.003754 0.999968
vn 0.007121 0.003754 0.999968
vn 0.007119 0.003754 0.999968
vn -0.007121 -0.003754 -0.999968
vn -0.007122 -0.003754 -0.999968
vn -0.007121 -0.003754 -0.999968
vn -0.007123 -0.003754 -0.999968
vn 0.999996 0.000022 -0.002957
vn 0.999996 0.000022 -0.002957
vn 0.999996 0.000022 -0.002957
vn 0.999996 0.000022 -0.002957
vn 0.000009 -0.999994 -0.003424
vn 0.000009 -0.999994 -0.003424
vn 0.000009 -0.999994 -0.003424
vn 0.000009 -0.999994 -0.003424
vn -0.999996 -0.000022 0.002957
vn -0.999996 -0.000022 0.002957
vn -0.999996 -0.000022 0.002957
vn -0.999996 -0.000022 0.002957
vn -0.000009 0.999994 0.003424
vn -0.000009 0.999994 0.003424
vn -0.000009 0.999994 0.003424
vn -0.000009 0.999994 0.003424
vn 0.002268 -0.003228 0.999992
vn 0.002268 -0.003228 0.999992
vn 0.002268 -0.003228 0.999992
vn 0.002268 -0.003228 0.999992
vn -0.002265 0.003228 -0.999992
vn -0.002270 0.003228 -0.999992
vn -0.002266 0.003228 -0.999992
vn -0.002271 0.003228 -0.999992
s 1
g polySurface283
f 51/85/145 49/86/146 52/87/147
f 52/87/147 49/86/146 50/88/148
s 2
f 53/89/149 51/85/150 54/90/151
f 54/90/151 51/85/150 52/87/152
s 3
f 55/91/153 53/89/154 56/92/155
f 56/92/155 53/89/154 54/90/156
s 4
f 49/93/157 55/91/158 50/94/159
f 50/94/159 55/91/158 56/92/160
s 5
f 52/87/161 50/88/162 54/95/163
f 54/95/163 50/88/162 56/96/164
s 6
f 53/97/165 55/98/166 51/85/167
f 51/85/167 55/98/166 49/86/168
s 7
f 59/99/169 57/100/170 60/101/171
f 60/101/171 57/100/170 58/102/172
s 8
f 61/103/173 59/99/174 62/104/175
f 62/104/175 59/99/174 60/101/176
s 9
f 63/105/177 61/103/178 64/106/179
f 64/106/179 61/103/178 62/104/180
s 10
f 57/107/181 63/105/182 58/108/183
f 58/108/183 63/105/182 64/106/184
s 11
f 60/101/185 58/102/186 62/109/187
f 62/109/187 58/102/186 64/110/188
s 12
f 61/111/189 63/112/190 59/99/191
f 59/99/191 63/112/190 57/100/192
s 13
f 67/113/193 65/114/194 68/115/195
f 68/115/195 65/114/194 66/116/196
s 14
f 69/117/197 67/113/198 70/118/199
f 70/118/199 67/113/198 68/115/200
s 15
f 71/119/201 69/117/202 72/120/203
f 72/120/203 69/117/202 70/118/204
s 16
f 65/121/205 71/119/206 66/122/207
f 66/122/207 71/119/206 72/120/208
s 17
f 68/115/209 66/116/210 70/123/211
f 70/123/211 66/116/210 72/124/212
s 18
f 69/125/213 71/126/214 67/113/215
f 67/113/215 71/126/214 65/114/216
s 19
f 75/127/217 73/128/218 76/129/219
f 76/129/219 73/128/218 74/130/220
s 20
f 77/131/221 75/127/222 78/132/223
f 78/132/223 75/127/222 76/129/224
s 21
f 79/133/225 77/131/226 80/134/227
f 80/134/227 77/131/226 78/132/228
s 22
f 73/135/229 79/133/230 74/136/231
f 74/136/231 79/133/230 80/134/232
s 23
f 76/129/233 74/130/234 78/137/235
f 78/137/235 74/130/234 80/138/236
s 24
f 77/139/237 79/140/238 75/127/239
f 75/127/239 79/140/238 73/128/240
s 25
f 83/141/241 81/142/242 84/143/243
f 84/143/243 81/142/242 82/144/244
s 26
f 85/145/245 83/141/246 86/146/247
f 86/146/247 83/141/246 84/143/248
s 27
f 87/147/249 85/145/250 88/148/251
f 88/148/251 85/145/250 86/146/252
s 28
f 81/149/253 87/147/254 82/150/255
f 82/150/255 87/147/254 88/148/256
s 29
f 84/143/257 82/144/258 86/151/259
f 86/151/259 82/144/258 88/152/260
s 30
f 85/153/261 87/154/262 83/141/263
f 83/141/263 87/154/262 81/142/264
s 31
f 91/155/265 89/156/266 92/157/267
f 92/157/267 89/156/266 90/158/268
s 32
f 93/159/269 91/155/270 94/160/271
f 94/160/271 91/155/270 92/157/272
s 33
f 95/161/273 93/159/274 96/162/275
f 96/162/275 93/159/274 94/160/276
s 34
f 89/163/277 95/161/278 90/164/279
f 90/164/279 95/161/278 96/162/280
s 35
f 92/157/281 90/158/282 94/165/283
f 94/165/283 90/158/282 96/166/284
s 36
f 93/167/285 95/168/286 91/155/287
f 91/155/287 95/168/286 89/156/288
